<svg xmlns="http://www.w3.org/2000/svg" width="87.999" height="87.999" viewBox="0 0 1396.68 1396.68" shape-rendering="geometricPrecision" text-rendering="geometricPrecision" image-rendering="optimizeQuality" fill-rule="evenodd" clip-rule="evenodd"><path d="M467.61 569.47c-24.99 12.08-44.64 29.14-58.97 51.19-14.32 21.75-21.48 46.81-21.48 75.19 0 29.3 7.01 55.27 21.03 77.92 14.02 22.65 33.52 40.31 58.51 53 25.3 12.38 53.94 18.57 85.94 18.57 17.98 0 33.83-1.51 47.54-4.53 14.02-3.02 28.95-8.31 44.79-15.85 1.83-1.21 3.05-2.27 3.66-3.17.61-.91 1.07-3.17 1.37-6.8l4.57-49.83c0-.91-1.07-1.36-3.2-1.36-1.52 0-2.29.31-2.29.91-8.22 24.77-20.11 43.18-35.65 55.27-15.54 12.08-35.81 18.12-60.8 18.12-23.47 0-45.25-6.35-65.37-19.03-19.81-12.68-35.65-29.9-47.53-51.64-11.58-22.05-17.37-46.21-17.37-72.48 0-27.48 5.33-51.49 16-72.02 10.67-20.84 25.75-36.84 45.25-48.02 19.5-11.17 42.05-16.76 67.65-16.76 48.76 0 80.15 25.22 94.17 75.65.3.91 1.22 1.36 2.74 1.36 1.83-.31 2.74-.91 2.74-1.81l-5.48-53.91c-.61-3.62-1.07-5.88-1.37-6.79-.31-.91-1.52-1.96-3.66-3.17-13.1-6.64-26.2-11.33-39.31-14.04-13.1-2.72-29.26-4.07-48.45-4.07-31.39 0-59.73 6.03-85.02 18.12zm266.74 23.55v209.73c0 9.06-1.07 15.85-3.2 20.38-1.83 4.23-5.64 7.1-11.43 8.6-5.49 1.51-14.02 2.27-25.6 2.27-.61 0-.91.91-.91 2.72s.31 2.72.91 2.72c9.75 0 17.37-.15 22.86-.45l31.54-.46 32.92.46c5.48.3 12.95.45 22.4.45.61 0 .91-.91.91-2.72s-.31-2.72-.91-2.72c-11.89 0-20.57-.76-26.06-2.27-5.48-1.51-9.29-4.37-11.43-8.6-1.83-4.53-2.74-11.33-2.74-20.38v-106h175.53v106c0 9.06-1.07 15.85-3.2 20.38-1.82 4.23-5.48 7.1-10.97 8.6-5.48 1.51-14.17 2.27-26.05 2.27-.91 0-1.37.91-1.37 2.72s.46 2.72 1.37 2.72c9.14 0 16.3-.15 21.48-.45l33.83-.46 31.54.46c5.48.3 12.95.45 22.4.45.91 0 1.37-.91 1.37-2.72s-.46-2.72-1.37-2.72c-11.58 0-20.11-.76-25.6-2.27-5.49-1.51-9.3-4.37-11.43-8.6-1.83-4.53-2.75-11.33-2.75-20.38V593.02c0-9.06.92-15.7 2.75-19.93 2.13-4.23 5.94-7.1 11.43-8.6 5.48-1.82 14.01-2.72 25.6-2.72.91 0 1.37-.91 1.37-2.72s-.46-2.72-1.37-2.72l-22.4.46c-12.8.6-23.31.91-31.54.91-9.14 0-20.41-.31-33.83-.91l-21.48-.46c-.91 0-1.37.91-1.37 2.72s.46 2.72 1.37 2.72c11.88 0 20.57.91 26.05 2.72 5.49 1.81 9.15 4.98 10.97 9.51 2.14 4.23 3.2 10.88 3.2 19.93v93.32H763.61v-93.32c0-9.06.91-15.7 2.74-19.93 2.14-4.53 5.94-7.7 11.43-9.51 5.79-1.82 14.47-2.72 26.06-2.72.61 0 .91-.91.91-2.72s-.31-2.72-.91-2.72l-21.94.46c-13.41.6-24.53.91-33.37.91-7.62 0-17.83-.31-30.62-.91l-23.31-.46c-.61 0-.92.91-.92 2.72s.31 2.72.92 2.72c11.58 0 20.11.91 25.6 2.72 5.48 1.51 9.14 4.37 10.97 8.6 2.13 4.23 3.2 10.88 3.2 19.93z" fill="#a87b62"/><path fill="none" d="M0 0h1396.68v1396.68H0z"/></svg>