<svg width="19" height="19" fill="none" xmlns="http://www.w3.org/2000/svg"><path fill="#A87B62" fill-opacity=".5" d="M0 0h19v19H0z"/><path fill-rule="evenodd" clip-rule="evenodd" d="M5.341 7.302a2.379 2.379 0 00-.983.853C4.12 8.518 4 8.935 4 9.41c0 .488.117.92.35 1.298.234.378.56.672.976.884.422.206.9.31 1.433.31.3 0 .564-.026.792-.076.234-.05.483-.138.747-.264a.22.22 0 00.06-.053.296.296 0 00.024-.113l.076-.831c0-.015-.018-.023-.054-.023-.025 0-.038.005-.038.015-.137.413-.335.72-.594.922-.26.201-.597.302-1.014.302-.39 0-.754-.106-1.09-.317a2.324 2.324 0 01-.792-.861 2.559 2.559 0 01-.29-1.208c0-.459.09-.859.268-1.201.177-.347.429-.614.754-.8.325-.187.7-.28 1.128-.28.812 0 1.336.42 1.57 1.261.004.015.02.023.045.023.03-.005.046-.015.046-.03l-.092-.9a1.05 1.05 0 00-.022-.112c-.006-.015-.026-.033-.061-.053a2.624 2.624 0 00-.656-.234A4.056 4.056 0 006.76 7c-.524 0-.996.1-1.418.302zm4.447.392v3.497a.833.833 0 01-.053.34c-.031.07-.095.118-.191.143a1.748 1.748 0 01-.427.037c-.01 0-.015.016-.015.046s.005.045.015.045c.163 0 .29-.002.381-.007l.526-.008.549.008c.091.005.216.007.373.007.01 0 .015-.015.015-.045s-.005-.046-.015-.046c-.198 0-.343-.012-.434-.037a.284.284 0 01-.19-.144.958.958 0 01-.046-.34V9.424h2.926v1.768a.833.833 0 01-.054.34c-.03.07-.09.118-.182.143a1.79 1.79 0 01-.435.037c-.015 0-.023.016-.023.046s.008.045.023.045c.153 0 .272-.002.358-.007l.564-.008.526.008c.091.005.216.007.373.007.016 0 .023-.015.023-.045s-.007-.046-.023-.046c-.193 0-.335-.012-.426-.037a.283.283 0 01-.19-.144.958.958 0 01-.047-.34V7.694c0-.15.016-.261.046-.332a.283.283 0 01.19-.143c.092-.03.234-.046.427-.046.016 0 .023-.015.023-.045s-.007-.045-.023-.045l-.373.007c-.213.01-.388.015-.526.015-.152 0-.34-.005-.564-.015l-.358-.007c-.015 0-.023.015-.023.045s.008.045.023.045c.198 0 .343.016.434.046.092.03.153.083.183.158.036.07.054.182.054.332v1.556h-2.926V7.71a.91.91 0 01.045-.332.303.303 0 01.19-.158c.097-.03.242-.046.435-.046.01 0 .015-.015.015-.045s-.005-.045-.015-.045l-.365.007c-.224.01-.41.015-.557.015-.127 0-.297-.005-.51-.015l-.389-.007c-.01 0-.015.015-.015.045s.005.045.015.045c.193 0 .335.016.427.046.091.025.152.073.183.143.035.07.053.181.053.332z" fill="#A87B62"/></svg>