<svg width="19" height="19" viewBox="0 0 19 19" fill="none" xmlns="http://www.w3.org/2000/svg">
<rect width="19" height="19" fill="#A87B62" fill-opacity="0.5"/>
<path fill-rule="evenodd" clip-rule="evenodd" d="M5.34112 7.30173C4.92453 7.50311 4.59696 7.7875 4.35808 8.15508C4.11936 8.51766 4 8.93542 4 9.40852C4 9.89695 4.11686 10.3299 4.35058 10.7075C4.58429 11.085 4.90936 11.3794 5.32595 11.591C5.74771 11.7974 6.22514 11.9006 6.75859 11.9006C7.05832 11.9006 7.32255 11.8754 7.5511 11.825C7.78481 11.7747 8.0337 11.6865 8.29776 11.5608C8.32826 11.5406 8.3486 11.523 8.35877 11.508C8.36894 11.4928 8.37661 11.4551 8.38161 11.3946L8.45779 10.5639C8.45779 10.5488 8.43995 10.5413 8.40445 10.5413C8.37911 10.5413 8.36627 10.5464 8.36627 10.5564C8.22924 10.9694 8.03103 11.2763 7.77198 11.4778C7.51292 11.6792 7.17502 11.7799 6.75843 11.7799C6.36717 11.7799 6.0041 11.674 5.66869 11.4626C5.33845 11.2512 5.0744 10.9642 4.87635 10.6018C4.68331 10.2342 4.58679 9.83144 4.58679 9.39351C4.58679 8.93542 4.67564 8.53516 4.85352 8.19292C5.03139 7.84551 5.28278 7.57879 5.60784 7.39242C5.93291 7.20621 6.30883 7.11302 6.73559 7.11302C7.54843 7.11302 8.07171 7.53345 8.30542 8.37413C8.31043 8.3893 8.32576 8.3968 8.3511 8.3968C8.38161 8.39163 8.39678 8.38163 8.39678 8.36663L8.30542 7.46793C8.29526 7.40759 8.28759 7.36991 8.28259 7.35474C8.27742 7.33957 8.25725 7.32207 8.22157 7.3019C8.00319 7.19121 7.78481 7.11302 7.56627 7.06785C7.34789 7.0225 7.07849 7 6.75859 7C6.23531 7 5.76288 7.10052 5.34129 7.30206L5.34112 7.30173Z" fill="#A87B62"/>
<path fill-rule="evenodd" clip-rule="evenodd" d="M9.78786 7.69427V11.1905C9.78786 11.3416 9.77003 11.4547 9.73452 11.5303C9.70401 11.6008 9.6405 11.6486 9.54398 11.6736C9.45246 11.6988 9.31026 11.7115 9.11722 11.7115C9.10705 11.7115 9.10205 11.7266 9.10205 11.7568C9.10205 11.787 9.10722 11.8022 9.11722 11.8022C9.27976 11.8022 9.40678 11.7997 9.4983 11.7947L10.0241 11.787L10.5729 11.7947C10.6642 11.7997 10.7887 11.8022 10.9463 11.8022C10.9564 11.8022 10.9614 11.787 10.9614 11.7568C10.9614 11.7266 10.9563 11.7115 10.9463 11.7115C10.7481 11.7115 10.6034 11.6988 10.5119 11.6736C10.4205 11.6485 10.357 11.6008 10.3213 11.5303C10.2908 11.4547 10.2756 11.3414 10.2756 11.1905V9.42348H13.2018V11.1905C13.2018 11.3416 13.1839 11.4547 13.1484 11.5303C13.1181 11.6008 13.0571 11.6486 12.9655 11.6736C12.8742 11.6988 12.7293 11.7115 12.5313 11.7115C12.5161 11.7115 12.5084 11.7266 12.5084 11.7568C12.5084 11.787 12.5161 11.8022 12.5313 11.8022C12.6837 11.8022 12.803 11.7997 12.8894 11.7947L13.4533 11.787L13.9791 11.7947C14.0705 11.7997 14.195 11.8022 14.3525 11.8022C14.3677 11.8022 14.3753 11.787 14.3753 11.7568C14.3753 11.7266 14.3677 11.7115 14.3525 11.7115C14.1595 11.7115 14.0173 11.6988 13.9258 11.6736C13.8342 11.6485 13.7707 11.6008 13.7352 11.5303C13.7047 11.4547 13.6894 11.3414 13.6894 11.1905V7.69427C13.6894 7.54324 13.7047 7.43255 13.7352 7.36204C13.7707 7.29152 13.8342 7.24368 13.9258 7.21867C14.0171 7.18833 14.1593 7.17333 14.3525 7.17333C14.3677 7.17333 14.3753 7.15816 14.3753 7.12798C14.3753 7.09781 14.3677 7.08264 14.3525 7.08264L13.9791 7.09031C13.7657 7.10031 13.5905 7.10548 13.4533 7.10548C13.301 7.10548 13.1131 7.10031 12.8894 7.09031L12.5313 7.08264C12.5161 7.08264 12.5084 7.09781 12.5084 7.12798C12.5084 7.15816 12.5161 7.17333 12.5313 7.17333C12.7293 7.17333 12.8742 7.1885 12.9655 7.21867C13.0571 7.24884 13.1181 7.30169 13.1484 7.3772C13.1841 7.44772 13.2018 7.55858 13.2018 7.70944V9.26511H10.2756V7.70944C10.2756 7.55841 10.2908 7.44772 10.3213 7.3772C10.357 7.30169 10.4203 7.24884 10.5119 7.21867C10.6084 7.18833 10.7531 7.17333 10.9463 7.17333C10.9564 7.17333 10.9614 7.15816 10.9614 7.12798C10.9614 7.09781 10.9563 7.08264 10.9463 7.08264L10.5805 7.09031C10.357 7.10031 10.1716 7.10548 10.0242 7.10548C9.89722 7.10548 9.72702 7.10031 9.51381 7.09031L9.12522 7.08264C9.11505 7.08264 9.10989 7.09781 9.10989 7.12798C9.10989 7.15816 9.11505 7.17333 9.12522 7.17333C9.31826 7.17333 9.46046 7.1885 9.55198 7.21867C9.64333 7.24384 9.70435 7.29152 9.73485 7.36204C9.77036 7.43255 9.7882 7.54341 9.7882 7.69427H9.78786Z" fill="#A87B62"/>
</svg>
